<svg width="90" height="90" viewBox="0 0 90 90" fill="none" xmlns="http://www.w3.org/2000/svg">
<circle cx="45" cy="45" r="40" fill="url(#paint0_linear_19_74)"/>
<circle cx="45" cy="45" r="44" stroke="#2A4367" stroke-width="2"/>
<path d="M41.1981 30.0749C40.546 29.5639 39.4887 29.5639 38.8366 30.0749C38.1845 30.5858 38.1845 31.4142 38.8366 31.9251L41.1981 30.0749ZM56.1541 45.4936L57.3348 46.4188L59.6963 44.5685L58.5156 43.6434L56.1541 45.4936ZM38.8366 31.9251L56.1541 45.4936L58.5156 43.6434L41.1981 30.0749L38.8366 31.9251Z" fill="#0C2871"/>
<path d="M38.8193 57.0749C38.1672 57.5858 38.1672 58.4142 38.8193 58.9251C39.4714 59.4361 40.5286 59.4361 41.1807 58.9251L38.8193 57.0749ZM58.4982 45.3566L59.679 44.4315L57.3175 42.5812L56.1367 43.5064L58.4982 45.3566ZM41.1807 58.9251L58.4982 45.3566L56.1367 43.5064L38.8193 57.0749L41.1807 58.9251Z" fill="#0C2871"/>
<defs>
<linearGradient id="paint0_linear_19_74" x1="5" y1="45" x2="125.889" y2="45" gradientUnits="userSpaceOnUse">
<stop stop-color="#FF9A35"/>
<stop offset="0.661458" stop-color="#A1E66E"/>
</linearGradient>
</defs>
</svg>
